<svg data-v-0dd9719b="" version="1.0" xmlns="http://www.w3.org/2000/svg" xmlns:xlink="http://www.w3.org/1999/xlink" width="100%" height="100%" viewBox="0 0 340.000000 250.000000" preserveAspectRatio="xMidYMid meet" color-interpolation-filters="sRGB" style="margin: auto;"> <rect data-v-0dd9719b="" x="0" y="0" width="100%" height="100%" fill="#fff" fill-opacity="1" class="background"></rect> <rect data-v-0dd9719b="" x="0" y="0" width="100%" height="100%" fill="url(#watermark)" fill-opacity="1" class="watermarklayer"></rect> <g data-v-0dd9719b="" fill="#333" class="icon-text-wrapper icon-svg-group iconsvg" transform="translate(47.344993591308594,95.26258087278276)"><g class="iconsvg-imagesvg" transform="translate(0,0)"><g><rect fill="#333" fill-opacity="0" stroke-width="2" x="0" y="0" width="60" height="59.474837187633206" class="image-rect"></rect> <svg x="0" y="0" width="60" height="59.474837187633206" filtersec="colorsb6932058114" class="image-svg-svg primary" style="overflow: visible;"><svg xmlns="http://www.w3.org/2000/svg" xlink="http://www.w3.org/1999/xlink" viewBox="-0.00009275852789869532 0.01587200164794922 93.07501220703125 92.26067352294922"><defs><linearGradient id="a57506ac8-fdce-4993-afb8-d3dda7eca017" x1="10.75" y1="46.14" x2="93.06" y2="46.14" gradientUnits="userSpaceOnUse"><stop offset="0" stop-color="#016737"></stop><stop offset="1" stop-color="#9f0"></stop></linearGradient><linearGradient id="dba4e815d-36c6-4ffa-b44b-8acf6555c86a" x1="14.83" y1="17.68" x2="58.09" y2="17.68" href="#a57506ac8-fdce-4993-afb8-d3dda7eca017"></linearGradient><linearGradient id="c53b656b3-3dd4-4011-ac06-55ff49db101b" y1="43.26" x2="44.96" y2="43.26" gradientUnits="userSpaceOnUse"><stop offset="0" stop-color="#ff0"></stop><stop offset="1" stop-color="#e37315"></stop></linearGradient><linearGradient id="b83a2aabd-6efc-4f3c-8ca6-7c14c1eefc00" x1="10.75" y1="62.04" x2="93.06" y2="62.04" gradientUnits="userSpaceOnUse"><stop offset="0" stop-color="#039"></stop><stop offset="1" stop-color="#65e0ff"></stop></linearGradient><linearGradient id="ef3da19b6-85b5-4d12-af5c-dd013e7d88c8" x1="25.72" y1="62.04" x2="93.06" y2="62.04" href="#b83a2aabd-6efc-4f3c-8ca6-7c14c1eefc00"></linearGradient><linearGradient id="f3fe562cb-b110-43e7-a8be-c89645fcb3cb" y1="45.61" x2="32.32" y2="45.61" href="#c53b656b3-3dd4-4011-ac06-55ff49db101b"></linearGradient></defs><g fill-rule="evenodd"><path d="M69 16c12.31 23.3-4.53 56.45-39.92 63.75 27.3-.18 56.38-20.5 61.84-47.91a46.54 46.54 0 0 1-80.17 43.65c15.65 3.62 34.85-5 43.68-19.26 6.81-11 8.52-23.52 3.66-34L46.52 29C42 17.64 28.93 9 16.67 11.52q-.95.2-1.86.48C31-3.28 56.33-6 69 16" fill="url(#a57506ac8-fdce-4993-afb8-d3dda7eca017)"></path><path d="M58.09 22.27L46.52 29C42 17.64 28.93 9 16.67 11.52a18.38 18.38 0 0 0-1.84.48c.41-.39.82-.77 1.25-1.14 7.65-6.37 28.48-8.42 42 11.41" fill="url(#dba4e815d-36c6-4ffa-b44b-8acf6555c86a)"></path><path d="M8.25 72.19q-1.32-1.91-2.46-4C20 68.5 36.45 53.91 32.32 37.15L19.07 44.8C23.53 56.71 6.21 72.64 2 59.3a46.34 46.34 0 0 1-2-13.56 45.17 45.17 0 0 1 2.71-15.41c.64-1.54 1.28-3.06 1.93-4.54S6 23.14 6.8 21.87c9.94-14.44 31.42-6.29 36.88 8.72 6.54 17.3-13 41.87-35.43 41.6" fill="url(#c53b656b3-3dd4-4011-ac06-55ff49db101b)"></path><path d="M29.1 79.71c27.3-.18 56.38-20.5 61.84-47.91a46.54 46.54 0 0 1-80.19 43.69s5.13 4.38 18.35 4.22" fill="url(#b83a2aabd-6efc-4f3c-8ca6-7c14c1eefc00)"></path><path d="M90.94 31.8a46.55 46.55 0 0 1-65.22 55.57c36.88 4.4 72.9-31.31 65.22-55.57" fill="url(#ef3da19b6-85b5-4d12-af5c-dd013e7d88c8)"></path><path d="M32.32 37.15L19.07 44.8C23.53 56.71 6.21 72.64 2 59.3a46.34 46.34 0 0 1-2-13.56c.16-25.21 28.05-22.07 32.32-8.59" fill="url(#f3fe562cb-b110-43e7-a8be-c89645fcb3cb)"></path></g></svg></svg> <!----></g></g> <g transform="translate(67,5.021167755126953)"><g data-gra="path-name" fill-rule="" class="tp-name iconsvg-namesvg" transform="translate(0,0)"><g transform="scale(1)"><g><path d="M4.64 3.56L4.64 3.56Q4.03 2.92 2.92 1.98L2.92 1.98Q1.69 1.01 1.01 0.65L1.01 0.65Q2.84-2.23 3.53-6.84L3.53-6.84Q4-9.97 4-14.62L4-14.62 4-25.13 18.68-25.13Q18.54-28.66 18.54-30.46L18.54-30.46 23.04-30.46Q23-28.08 23.11-25.13L23.11-25.13 28.62-25.13Q27-26.42 24.01-28.26L24.01-28.26 26.6-30.82Q30.49-28.84 32.47-26.96L32.47-26.96 30.74-25.13 34.49-25.13 34.49-20.88 23.36-20.88Q23.83-15.52 24.8-11.02L24.8-11.02Q27.04-14.83 28.26-19.01L28.26-19.01 32.54-17.96Q30.35-11.02 26.35-5.62L26.35-5.62Q28.01-1.51 29.7-1.51L29.7-1.51Q30.35-1.51 30.69-2.99 31.03-4.46 31.18-7.81L31.18-7.81Q32.65-6.26 34.81-5.4L34.81-5.4Q34.31-0.54 33.08 1.22L33.08 1.22Q31.93 2.84 29.34 2.84L29.34 2.84Q25.81 2.84 23.26-1.91L23.26-1.91Q20.52 0.94 17.17 2.99L17.17 2.99Q15.88 1.12 14.08-0.54L14.08-0.54Q18.25-2.81 21.42-6.37L21.42-6.37Q19.69-12.1 18.94-20.88L18.94-20.88 8.5-20.88 8.5-17.03 17.39-17.03Q17.39-16.24 17.35-15.41L17.35-15.41Q17.28-9.5 17.06-7.06L17.06-7.06Q16.81-4.36 16.2-3.6L16.2-3.6Q15.34-2.45 13.72-2.16L13.72-2.16Q12.6-1.98 9.58-2.05L9.58-2.05Q9.43-4.28 8.39-6.05L8.39-6.05Q10.12-5.9 11.48-5.9L11.48-5.9Q12.2-5.9 12.56-6.34L12.56-6.34Q13.03-6.98 13.18-13.1L13.18-13.1 8.5-13.1Q8.17-1.69 4.64 3.56ZM61.13 3.1L56.92 3.1 56.92-27.72Q55.19-23.33 53.06-20.05L53.06-20.05 55.73-20.05 55.73-16.31 50.36-16.31Q49.57-15.34 48.06-13.68L48.06-13.68 54.54-13.68 54.54 2.56 50.47 2.56 50.47 1.19 44.68 1.19 44.68 3.02 40.79 3.02 40.79-7.88Q40-7.38 38.99-6.8L38.99-6.8Q37.94-8.78 36.5-10.37L36.5-10.37Q41.36-12.71 45.11-16.31L45.11-16.31 37.44-16.31 37.44-20.05 43.7-20.05 43.7-23 38.99-23 38.99-26.68 43.7-26.68 43.7-30.17 47.66-30.17 47.66-26.68 51.37-26.68 51.37-24.84Q52.09-26.17 53.14-28.87L53.14-28.87 56.92-27.83 56.92-28.51 67.28-28.51 67.93-28.66 71.03-26.71Q68.44-19.84 66.67-16.02L66.67-16.02Q70.34-12.17 70.34-7.67L70.34-7.67Q70.34-3.56 68.33-2.27L68.33-2.27Q67.39-1.51 65.81-1.3L65.81-1.3Q64.58-1.15 62.68-1.26L62.68-1.26Q62.64-2.2 62.35-3.35L62.35-3.35Q62.06-4.57 61.6-5.4L61.6-5.4Q62.46-5.33 63.86-5.33L63.86-5.33Q64.76-5.33 65.3-5.65L65.3-5.65Q66.24-6.19 66.24-8.1L66.24-8.1Q66.24-11.92 62.5-15.48L62.5-15.48Q63.94-18.94 65.66-24.48L65.66-24.48 61.13-24.48 61.13 3.1ZM44.68-4.79L44.68-2.23 50.47-2.23 50.47-4.79 44.68-4.79ZM44.68-10.3L44.68-8.03 50.47-8.03 50.47-10.3 44.68-10.3ZM47.66-23L47.66-20.05 48.38-20.05Q49.36-21.38 50.36-23L50.36-23 47.66-23ZM75.96 2.99L75.96 2.99Q75.49 2.12 74.7 1.04L74.7 1.04Q73.84-0.14 73.15-0.72L73.15-0.72Q83.77-4.5 86.47-12.89L86.47-12.89 74.41-12.89 74.41-17.28 87.37-17.28Q87.48-18.76 87.48-20.05L87.48-20.05 87.48-23.69 75.71-23.69 75.71-28.08 104.22-28.08 104.22-23.69 91.98-23.69 91.98-19.98Q91.98-19.15 91.91-17.39L91.91-17.39Q91.91-17.32 91.91-17.28L91.91-17.28 105.62-17.28 105.62-12.89 93.06-12.89Q97.09-3.78 107.21-1.12L107.21-1.12Q106.45-0.47 105.59 0.76L105.59 0.76Q104.76 1.91 104.26 2.88L104.26 2.88Q99.32 1.3 95.8-1.84L95.8-1.84Q92.45-4.79 90.11-9.36L90.11-9.36Q86.65-1.01 75.96 2.99ZM112.64 3.06L112.64 3.06 109.55-0.97Q111.53-3.1 113.47-4.36L113.47-4.36Q115.52-5.65 116.96-5.65L116.96-5.65 117.18-5.65Q121.54-8.24 125.89-12.13L125.89-12.13Q130.14-15.88 133.09-19.62L133.09-19.62 111.38-19.62 111.38-23.83 125.42-23.83Q124.42-25.63 122.18-28.87L122.18-28.87 126.04-30.92Q126.14-30.78 126.4-30.46L126.4-30.46Q129.31-26.5 130.07-25.09L130.07-25.09 127.87-23.83 136.33-23.83 137.16-24.05 140.47-21.85Q137.12-16.85 131.87-11.81L131.87-11.81Q126.76-6.88 121.25-3.28L121.25-3.28Q122.8-2.34 125.17-1.94L125.17-1.94Q127.12-1.66 130.28-1.66L130.28-1.66Q137.02-1.66 142.88-2.52L142.88-2.52Q141.77 0.61 141.66 2.05L141.66 2.05Q136.04 2.45 130.14 2.45L130.14 2.45Q126.72 2.45 124.52 2.02L124.52 2.02Q122.18 1.58 120.38 0.47L120.38 0.47Q119.77 0.11 118.76-0.61L118.76-0.61Q117.36-1.66 116.86-1.66L116.86-1.66Q116.1-1.66 114.88-0.18L114.88-0.18Q114.08 0.83 112.64 3.06ZM167.76 3.35L167.76 3.35Q167.26 1.91 165.85 0.04L165.85 0.04Q165.67 0.79 165.28 1.33L165.28 1.33Q164.52 2.3 163.22 2.48L163.22 2.48Q161.89 2.7 160.06 2.59L160.06 2.59Q159.91 0.68 159.12-0.83L159.12-0.83Q160.06-0.72 161.17-0.72L161.17-0.72Q161.75-0.72 162.07-1.08L162.07-1.08Q162.5-1.62 162.76-5.58L162.76-5.58 159.88-5.58Q158.69 0.25 155.3 3.24L155.3 3.24Q154.91 2.66 154.15 1.84L154.15 1.84Q153.29 0.94 152.71 0.5L152.71 0.5 152.71 3.1 148.79 3.1 148.79-14.47Q148.1-13.39 146.99-12.02L146.99-12.02Q146.7-12.92 146.09-14.33L146.09-14.33Q145.4-15.88 144.9-16.63L144.9-16.63Q146.99-19.19 148.77-22.86 150.55-26.53 151.63-30.46L151.63-30.46 155.59-29.34Q155.2-28.01 154.73-26.78L154.73-26.78 158.9-26.78 158.9-29.99 162.79-29.99 162.79-26.78 166.68-26.78 166.68-23.4 162.79-23.4 162.79-20.88 166.1-20.88 166.1-17.64Q168.44-22.32 169.56-30.49L169.56-30.49 173.38-29.81Q172.91-26.96 172.22-24.12L172.22-24.12 178.78-24.12 178.78-20.52 177.37-20.52Q176.65-11.2 174.64-5.9L174.64-5.9Q176.47-2.41 179.32-0.4L179.32-0.4Q177.66 1.37 176.69 3.1L176.69 3.1Q174.24 1.08 172.55-1.87L172.55-1.87Q170.71 1.15 167.76 3.35ZM152.71-21.71L152.71 0.36Q154.76-1.33 155.74-4.43L155.74-4.43Q156.53-7.02 156.74-11.23L156.74-11.23 153.76-11.23 153.76-14.65 158.9-14.65 158.9-17.42 155.12-17.42 155.12-20.88 158.9-20.88 158.9-23.4 154.62-23.4 154.62-26.46Q153.79-24.01 152.71-21.71L152.71-21.71ZM165.92-0.25L165.92-0.25Q168.91-2.41 170.68-5.9L170.68-5.9Q169.31-9.58 168.59-14.04L168.59-14.04Q168.23-13.32 167.8-12.67L167.8-12.67Q167.72-12.74 167.58-12.96L167.58-12.96Q167.18-13.54 166.93-13.82L166.93-13.82 166.93-11.23 160.52-11.23Q160.49-10.98 160.45-10.48L160.45-10.48Q160.38-9.4 160.31-8.86L160.31-8.86 166.64-8.86Q166.64-8.17 166.61-7.45L166.61-7.45Q166.32-2.02 165.92-0.25ZM172.51-11.23L172.51-11.23Q173.41-15.01 173.7-20.52L173.7-20.52 171.25-20.52Q171.11-20.05 170.93-19.55L170.93-19.55Q171.47-14.98 172.51-11.23ZM162.79-17.42L162.79-14.65 166.25-14.65Q165.67-15.37 165.1-15.91L165.1-15.91Q165.42-16.34 166-17.42L166-17.42 162.79-17.42Z" transform="translate(-1.0099999904632568, 30.920000076293945)"></path></g> <!----> <!----> <!----> <!----> <!----> <!----> <!----></g></g> <g data-gra="path-slogan" fill-rule="" class="tp-slogan iconsvg-slogansvg" fill="#333" transform="translate(25.97000503540039,40.47999954223633)"><!----> <!----> <g transform="scale(1, 1)"><g transform="scale(1)"><path d="M8.06-6.05L8.06-6.05L6.94-6.05Q6.52-7.78 4.55-7.83L4.55-7.83Q1.83-7.69 1.73-4.36L1.73-4.36Q1.73-0.80 4.59-0.80L4.59-0.80Q6.56-0.84 7.03-3.19L7.03-3.19L8.16-3.19Q7.64 0.05 4.36 0.14L4.36 0.14Q0.61 0 0.52-4.31L0.52-4.31Q0.70-8.63 4.55-8.81L4.55-8.81Q7.59-8.72 8.06-6.05ZM10.69-5.06L15.19-5.06L15.19-8.58L16.36-8.58L16.36 0L15.19 0L15.19-3.98L10.69-3.98L10.69 0L9.52 0L9.52-8.58L10.69-8.58L10.69-5.06ZM19.45-1.03L24.61-1.03L24.61 0L18.28 0L18.28-8.58L24.52-8.58L24.52-7.59L19.45-7.59L19.45-4.92L24.14-4.92L24.14-3.89L19.45-3.89L19.45-1.03ZM27.52-8.58L31.83-1.64L31.83-8.58L32.95-8.58L32.95 0L31.64 0L27.28-6.94L27.23-6.94L27.23 0L26.11 0L26.11-8.58L27.52-8.58ZM41.16-3.61L38.53-3.61L38.53-4.59L42.28-4.59L42.28 0L41.53 0L41.25-1.08Q40.27 0.09 38.44 0.14L38.44 0.14Q36.70 0.14 35.77-0.75L35.77-0.75Q34.36-2.06 34.41-4.36L34.41-4.36Q34.73-8.63 38.48-8.81L38.48-8.81Q41.67-8.63 42.14-6L42.14-6L41.02-6Q40.55-7.78 38.44-7.83L38.44-7.83Q35.77-7.64 35.63-4.31L35.63-4.31Q35.63-0.75 38.48-0.75L38.48-0.75Q39.52-0.75 40.27-1.31L40.27-1.31Q41.20-2.06 41.16-3.61L41.16-3.61ZM47.58 0L44.11 0L44.11-8.58L47.63-8.58Q51.09-8.39 51.23-4.41L51.23-4.41Q51.05-0.09 47.58 0L47.58 0ZM47.44-7.64L45.28-7.64L45.28-0.98L47.53-0.98Q49.97-1.13 50.06-4.31L50.06-4.31Q50.02-7.55 47.44-7.64L47.44-7.64ZM58.36-3.19L58.36-8.58L59.53-8.58L59.53-3.05Q59.39 0.05 56.02 0.14L56.02 0.14Q52.88 0.05 52.73-2.86L52.73-2.86L52.73-8.58L53.91-8.58L53.91-3.19Q53.95-0.84 56.06-0.80L56.06-0.80Q58.36-0.84 58.36-3.19L58.36-3.19ZM70.92-6.09L70.92-6.09L69.84-6.09Q69.75-7.73 67.69-7.83L67.69-7.83Q65.77-7.78 65.77-6.33L65.77-6.33Q65.77-5.39 66.80-5.25L66.80-5.25L69.23-4.69Q71.16-4.22 71.16-2.34L71.16-2.34Q71.11 0.05 67.78 0.14L67.78 0.14Q65.95 0.14 65.20-0.61L65.20-0.61Q64.27-1.31 64.31-2.77L64.31-2.77L65.44-2.77Q65.48-0.80 67.78-0.75L67.78-0.75Q70.03-0.80 70.08-2.20L70.08-2.20Q70.27-3.38 68.20-3.75L68.20-3.75L66.42-4.13Q64.59-4.64 64.59-6.19L64.59-6.19Q64.73-8.72 67.59-8.81L67.59-8.81Q70.83-8.81 70.92-6.09ZM75.14-4.31L73.78-3.05L73.78 0L72.61 0L72.61-8.58L73.78-8.58L73.78-4.41L77.95-8.58L79.59-8.58L75.98-5.11L79.69 0L78.14 0L75.14-4.31ZM87.52-8.58L84.28-3.47L84.28 0L83.11 0L83.11-3.47L79.88-8.58L81.23-8.58L83.67-4.45L86.16-8.58L87.52-8.58ZM95.53-7.64L93.19-7.64L93.19-4.64L95.48-4.64Q97.27-4.64 97.27-6.19L97.27-6.19Q97.27-7.59 95.53-7.64L95.53-7.64ZM95.91-3.61L93.19-3.61L93.19 0L92.02 0L92.02-8.58L95.91-8.58Q98.34-8.48 98.44-6.19L98.44-6.19Q98.30-3.70 95.91-3.61L95.91-3.61ZM103.97-3.70L101.16-3.70L101.16 0L99.98 0L99.98-8.58L103.97-8.58Q106.83-8.58 106.83-6.28L106.83-6.28Q106.83-4.88 105.61-4.22L105.61-4.22Q106.64-3.94 106.64-2.58L106.64-2.58L106.73-1.03Q106.69-0.38 107.16-0.19L107.16-0.19L107.16 0L105.70 0Q105.56-0.61 105.52-2.16L105.52-2.16Q105.56-3.70 103.97-3.70L103.97-3.70ZM104.06-7.64L101.16-7.64L101.16-4.69L103.88-4.69Q105.61-4.69 105.61-6.19L105.61-6.19Q105.61-7.64 104.06-7.64L104.06-7.64ZM108.66-8.58L109.83-8.58L109.83 0L108.66 0L108.66-8.58ZM115.31 0L111.84 0L111.84-8.58L115.36-8.58Q118.83-8.39 118.97-4.41L118.97-4.41Q118.78-0.09 115.31 0L115.31 0ZM115.17-7.64L113.02-7.64L113.02-0.98L115.27-0.98Q117.70-1.13 117.80-4.31L117.80-4.31Q117.75-7.55 115.17-7.64L115.17-7.64ZM121.73-1.03L126.89-1.03L126.89 0L120.56 0L120.56-8.58L126.80-8.58L126.80-7.59L121.73-7.59L121.73-4.92L126.42-4.92L126.42-3.89L121.73-3.89L121.73-1.03Z" transform="translate(-0.515625, 8.8125)"></path></g></g></g></g></g><defs v-gra="od"></defs></svg>